<?xml version="1.0" standalone="no"?><!DOCTYPE svg PUBLIC "-//W3C//DTD SVG 1.1//EN" "http://www.w3.org/Graphics/SVG/1.1/DTD/svg11.dtd"><svg t="1619570312327" class="icon" viewBox="0 0 1024 1024" version="1.1" xmlns="http://www.w3.org/2000/svg" p-id="1968" xmlns:xlink="http://www.w3.org/1999/xlink" width="64" height="64"><defs><style type="text/css"></style></defs><path d="M802.649148 318.851978l-72.698742 0c4.143367-10.803044 6.30152-22.378683 6.30152-34.047444 0-25.323758-9.907651-49.15656-27.887141-67.101257-17.955954-17.968234-41.819454-27.863604-67.200518-27.863604-50.613748 0-91.768053 38.617529-111.779829 61.620429-6.131651 7.003508-12.036128 14.56881-17.398252 22.273283-5.346775-7.662517-11.237949-15.223726-17.362436-22.261003-20.054755-23.016203-61.252039-61.632709-111.802342-61.632709-52.423977 0-95.077426 42.60126-95.077426 94.964862 0 11.654434 2.162246 23.233144 6.307659 34.047444l-72.692602 0c-16.814967 0-30.493501 13.666254-30.493501 30.463826l0 96.765881c0 16.796548 13.678534 30.461779 30.493501 30.461779l1.792832 0 0 292.035216c0 34.592866 28.16855 62.73788 62.791092 62.73788l452.101795 0c34.622542 0 62.791092-28.145014 62.791092-62.73788l0-292.035216 1.812275 0c16.808828 0 30.483268-13.665231 30.483268-30.461779l0-96.765881C833.132416 332.518233 819.457975 318.851978 802.649148 318.851978zM534.069133 361.976148l0 428.606685-44.119847 0 0-428.606685L534.069133 361.976148zM449.20942 476.503555l0 314.079278-163.265434 0c-12.164041 0-22.059412-9.871835-22.059412-22.0062l0-292.052612L449.20942 476.503555zM574.777277 359.440395l77.703733 0-0.104377 0.130983 140.025127 0 0 76.262918-217.624483 0L574.777277 359.440395zM641.164267 230.562143c29.977755 0 54.367235 24.333198 54.367235 54.242392 0 11.838629-3.755534 23.079648-10.858302 32.504298l-1.165546 1.544169-151.413502 0 2.954285-5.308913c6.701632-12.045337 15.361873-24.263613 25.060769-35.352159C596.140841 236.749052 626.359073 230.562143 641.164267 230.562143zM382.82243 230.562143c14.770402 0 44.943608 6.187933 81.078597 47.621601 9.751085 11.206226 18.411325 23.432689 25.047466 35.360346l2.952238 5.308913-151.407362 0-1.147126-1.533936c-7.117095-9.43693-10.878768-20.679995-10.878768-32.513508C328.466452 254.895341 352.849792 230.562143 382.82243 230.562143zM372.053156 359.440395l77.155241 0 0 76.136028-211.119325 0.236384-6.493901 0 0-76.252685 140.556223 0L372.053156 359.440395zM738.044758 790.582833l-163.267481 0 0-314.041416 185.325869 0 0 292.035216C760.104169 780.710998 750.208798 790.582833 738.044758 790.582833z" p-id="1969"></path></svg>