<?xml version="1.0" standalone="no"?><!DOCTYPE svg PUBLIC "-//W3C//DTD SVG 1.1//EN" "http://www.w3.org/Graphics/SVG/1.1/DTD/svg11.dtd"><svg t="1619570178949" class="icon" viewBox="0 0 1088 1024" version="1.1" xmlns="http://www.w3.org/2000/svg" p-id="3846" xmlns:xlink="http://www.w3.org/1999/xlink" width="68" height="64"><defs><style type="text/css"></style></defs><path d="M0.001626 332.622756a332.390477 332.390477 0 0 1 544.402642-256.203142 332.390477 332.390477 0 0 1 544.402642 256.203142c0 115.093977-90.820878 245.227985-178.505997 304.517061a29.963921 29.963921 0 0 1-16.956328 5.226266 30.312339 30.312339 0 0 1-16.956327-55.340343c73.051576-49.359173 151.910113-160.678625 151.910113-254.402984A271.881938 271.881938 0 0 0 565.599677 138.728311a30.254269 30.254269 0 0 1-42.390819 0A271.998077 271.998077 0 1 0 210.968538 576.050582a30.254269 30.254269 0 1 1-27.060441 54.120882A330.996806 330.996806 0 0 1 0.001626 332.622756" p-id="3847"></path><path d="M844.856457 745.497719a92.911384 92.911384 0 0 1-65.967083-27.350788l-115.326256-115.326256a30.1962 30.1962 0 1 1 42.739237-42.739237l115.384325 115.326256a33.506168 33.506168 0 0 0 46.455692 0 32.867402 32.867402 0 0 0 0-46.455692l-330.996806-321.879877a30.1962 30.1962 0 0 1 42.158541-43.319933l331.461363 322.170225a93.259802 93.259802 0 0 1-65.618665 159.459163z" p-id="3848"></path><path d="M766.927033 846.53885a92.911384 92.911384 0 0 1-65.909013-27.23465l-58.940659-58.998729a30.1962 30.1962 0 0 1 42.739236-42.739237l58.94066 58.94066a32.809333 32.809333 0 0 0 46.455692 0 32.577054 32.577054 0 0 0 0-46.455692L633.657266 573.727798a30.254269 30.254269 0 0 1 42.797307-42.739237l156.381473 156.439543a92.911384 92.911384 0 0 1-65.909013 159.110746z" p-id="3849"></path><path d="M677.732104 935.791848a92.562967 92.562967 0 0 1-65.909013-27.292719l-14.459334-14.227056a30.254269 30.254269 0 1 1 42.797306-42.739236l14.401265 14.459334a33.564238 33.564238 0 0 0 46.455692 0 32.925472 32.925472 0 0 0 0-46.455692l-31.067244-31.067245a30.1962 30.1962 0 0 1 42.739237-42.739236l31.067244 31.067244a93.259802 93.259802 0 0 1-65.909013 159.168815z" p-id="3850"></path><path d="M589.524359 1023.999594a92.562967 92.562967 0 0 1-65.909013-27.29272l-14.401265-14.517403a30.1962 30.1962 0 1 1 42.739237-42.681168l14.401264 14.459335a33.564238 33.564238 0 0 0 46.455693 0 32.809333 32.809333 0 0 0 0-46.455692l-12.543037-12.543037a30.254269 30.254269 0 1 1 42.797306-42.739237l12.484967 12.543037a93.259802 93.259802 0 0 1-65.909013 159.168815zM249.700971 711.294716a93.259802 93.259802 0 0 1-65.850943-159.168815L283.207139 452.942998a95.350308 95.350308 0 0 1 131.818026 0 92.911384 92.911384 0 0 1 0 131.876096l-99.357111 99.182903a92.562967 92.562967 0 0 1-65.967083 27.292719z m99.415181-225.368176a32.518984 32.518984 0 0 0-23.227846 9.639556L226.473125 594.923207a32.751263 32.751263 0 0 0 0 46.455692 33.506168 33.506168 0 0 0 46.455692 0l99.357112-99.53132a32.809333 32.809333 0 0 0-23.227846-55.921039z" p-id="3851"></path><path d="M338.83783 800.373506A93.259802 93.259802 0 0 1 272.928817 641.20469l99.357112-99.357111a95.466447 95.466447 0 0 1 131.876096 0 93.375941 93.375941 0 0 1 0 131.876096L404.746844 773.080786a92.562967 92.562967 0 0 1-65.909014 27.29272zM438.194942 574.88919a32.751263 32.751263 0 0 0-23.227846 9.639556l-99.299042 99.473251a32.751263 32.751263 0 0 0 0 46.455692 33.506168 33.506168 0 0 0 46.455692 0l99.415181-99.357112a32.809333 32.809333 0 0 0-23.227846-55.921039z" p-id="3852"></path><path d="M427.91662 889.510365a93.259802 93.259802 0 0 1-65.909013-159.226885l99.415181-99.357111a95.466447 95.466447 0 0 1 131.818026 0 93.375941 93.375941 0 0 1 0 131.876096L493.593355 862.159576a92.911384 92.911384 0 0 1-65.676735 27.350789z m99.415181-225.368177a32.460915 32.460915 0 0 0-23.227846 9.581487L404.746844 773.080786a32.809333 32.809333 0 0 0 0 46.455693 33.622307 33.622307 0 0 0 46.455692 0L550.501578 720.063228a32.751263 32.751263 0 0 0-23.227847-55.86297z" p-id="3853"></path><path d="M516.821201 978.589154a93.259802 93.259802 0 0 1-65.909013-159.168815L550.501578 720.063228a95.466447 95.466447 0 0 1 131.818026 0 93.375941 93.375941 0 0 1 0 131.876096l-99.357112 99.357111a92.911384 92.911384 0 0 1-66.141291 27.292719z m99.415181-225.368176a32.460915 32.460915 0 0 0-23.227846 9.581487L493.593355 862.159576a32.925472 32.925472 0 0 0 0 46.455692 33.680377 33.680377 0 0 0 46.455692 0l99.357111-99.357111a32.751263 32.751263 0 0 0-23.227846-55.86297zM403.353173 429.018317a93.259802 93.259802 0 0 1-65.909013-159.168815l186.287325-174.789542A30.254269 30.254269 0 0 1 565.077051 139.367076l-185.822769 174.208846a32.635124 32.635124 0 0 0 0.696836 45.642717 33.622307 33.622307 0 0 0 46.455692 0l111.784009-96.627839a30.254269 30.254269 0 1 1 39.487338 45.874996l-110.332268 94.769612a91.227365 91.227365 0 0 1-64.283064 25.782909z" p-id="3854"></path></svg>