<?xml version="1.0" standalone="no"?><!DOCTYPE svg PUBLIC "-//W3C//DTD SVG 1.1//EN" "http://www.w3.org/Graphics/SVG/1.1/DTD/svg11.dtd"><svg t="1619672291329" class="icon" viewBox="0 0 1024 1024" version="1.1" xmlns="http://www.w3.org/2000/svg" p-id="1383" xmlns:xlink="http://www.w3.org/1999/xlink" width="64" height="64"><defs><style type="text/css"></style></defs><path d="M675.215804 65.280796c-60.882626 0-118.537743 22.884197-162.006767 63.553455-43.469024-40.669258-101.143585-63.553455-162.007791-63.553455-130.556475 0-236.780775 106.225323-236.780775 236.780775 0 56.060807 19.768229 110.545722 55.652508 153.459091l38.239929-31.971156c-28.002774-33.473369-44.044122-77.757968-44.044122-121.487935 0-103.072517 83.859943-186.931436 186.93246-186.931436 55.522548 0 107.634416 24.015973 142.943596 65.908082l19.064194 22.624277 19.064194-22.624277c35.30918-41.892109 87.421049-65.908082 142.943596-65.908082 103.072517 0 186.93246 83.85892 186.93246 186.931436 0 43.728944-16.059767 88.014566-44.024679 121.487935l38.202067 31.971156c35.902698-42.913369 55.67195-97.398284 55.67195-153.459091C911.997602 171.506119 805.771255 65.280796 675.215804 65.280796zM587.072301 239.603053l-100.661607 281.788851-77.035514-166.82961-61.698201 134.431735-100.326986 0 0 49.848315 132.299165 0 29.875424-65.074088 82.765005 179.254593 95.561449-267.378653 56.525388 153.198148L779.067057 538.842345l0-49.848315-99.93813 0L587.072301 239.603053zM526.542716 813.008588l-26.668383 0L307.935859 585.482595l-38.09155 32.120558 206.849068 245.254773 73.02927 0 206.867488-245.254773-38.128389-32.120558L526.542716 813.008588z" p-id="1384"></path></svg>