<?xml version="1.0" standalone="no"?><!DOCTYPE svg PUBLIC "-//W3C//DTD SVG 1.1//EN" "http://www.w3.org/Graphics/SVG/1.1/DTD/svg11.dtd"><svg t="1617091875836" class="icon" viewBox="0 0 1024 1024" version="1.1" xmlns="http://www.w3.org/2000/svg" p-id="1268" width="160" height="160" xmlns:xlink="http://www.w3.org/1999/xlink"><defs><style type="text/css"></style></defs><path d="M771.52768 549.97504H252.47232a63.78496 63.78496 0 0 1-63.80544-63.7696 63.79008 63.79008 0 0 1 63.80544-63.77472h519.05536a63.79008 63.79008 0 0 1 63.80544 63.77472 63.78496 63.78496 0 0 1-63.80544 63.7696z m0 268.66176H252.47232a63.78496 63.78496 0 0 1-63.80544-63.7696 63.79008 63.79008 0 0 1 63.80544-63.77472h519.05536a63.79008 63.79008 0 0 1 63.80544 63.77472 63.78496 63.78496 0 0 1-63.80544 63.7696z" fill="#64F4AF" p-id="1269"></path><path d="M873.73312 620.59008a166.51264 166.51264 0 0 0-98.40128-301.00992h-51.81952c42.15808-21.58592 77.42976-48.58368 93.06624-81.85344a96.37376 96.37376 0 0 0-3.1232-88.22784l-0.62976-1.15712c-14.18752-24.7808-51.23072-48.49664-101.7856-45.696-44.70272 2.49344-125.952 28.70784-200.2688 166.33856-74.3168-137.63072-155.5712-163.84-200.2688-166.33856-50.7392-2.85184-87.59296 20.92032-101.79072 45.696l-0.62976 1.15712a96.38912 96.38912 0 0 0-3.1232 88.22784c15.63648 33.28 50.90816 60.2624 93.07136 81.85344h-49.3568a166.51264 166.51264 0 0 0-98.40128 301.00992A166.51264 166.51264 0 0 0 248.66816 921.6h526.66368a166.51264 166.51264 0 0 0 98.40128-301.00992z m3.86048-134.39488a102.33856 102.33856 0 0 1-102.26176 102.17984H544.256V384h231.08608a102.33344 102.33344 0 0 1 102.25152 102.1952z m-163.46624-319.18592c1.67936-0.1024 3.30752-0.1536 4.89472-0.1536 21.7856 0 34.93376 9.27744 37.62688 13.17888 7.20896 14.40768 4.63872 23.74656 1.536 30.30016-16.29184 34.65216-91.53024 72.22784-195.88608 98.944 63.21152-122.91072 126.09024-140.672 151.82848-142.26944z m-450.79552 43.32544c-3.072-6.5536-5.632-15.872 1.536-30.30016 2.89792-4.19328 17.87392-14.55616 42.496-13.02528 25.73824 1.59744 88.62208 19.34848 151.81312 142.27456-104.31488-26.72128-179.5584-64.29184-195.84512-98.94912zM146.432 486.1952A102.33344 102.33344 0 0 1 248.66816 384H479.744v204.35968H248.66816A102.33856 102.33856 0 0 1 146.432 486.1952z m0 268.8a102.33856 102.33856 0 0 1 102.23616-102.1952H479.744v204.35456H248.66816A102.33344 102.33344 0 0 1 146.432 754.99008z m628.92544 102.17472H544.256V652.8h231.08608a102.17984 102.17984 0 1 1-0.01024 204.3648z" fill="#242F44" p-id="1270"></path></svg>