<?xml version="1.0" standalone="no"?><!DOCTYPE svg PUBLIC "-//W3C//DTD SVG 1.1//EN" "http://www.w3.org/Graphics/SVG/1.1/DTD/svg11.dtd"><svg t="1617091902576" class="icon" viewBox="0 0 1024 1024" version="1.1" xmlns="http://www.w3.org/2000/svg" p-id="1647" xmlns:xlink="http://www.w3.org/1999/xlink" width="160" height="160"><defs><style type="text/css"></style></defs><path d="M552.77795555 472.154112a33.78744889 33.78744889 0 0 1-27.49599288-13.51497955 34.71951645 34.71951645 0 0 1 6.05843911-48.93354667l175.69473422-136.78091378a69.90506667 69.90506667 0 0 0-98.79916089-97.86709333L369.85969778 459.80421689a34.95253333 34.95253333 0 0 1-53.59388445-44.97225956L555.57415822 128.92023467l2.097152-2.33016889a139.81013333 139.81013333 0 0 1 197.36530489 197.36530489l-3.26223644 2.79620266L574.21550933 465.39662222a34.95253333 34.95253333 0 0 1-21.43755378 6.75748978z" fill="#12DBDB" p-id="1648"></path><path d="M529.47626667 938.18788978h-233.01688889a291.504128 291.504128 0 0 1-291.27111111-291.27111111v-186.41351112a34.95253333 34.95253333 0 0 1 34.95253333-34.95253333h745.65404445a34.95253333 34.95253333 0 0 1 34.95253333 34.95253333v186.41351112a291.504128 291.504128 0 0 1-291.27111111 291.27111111z m-454.38293334-442.73208889v151.46097778a221.59906133 221.59906133 0 0 0 221.36604445 221.36604444h233.01688889a221.59906133 221.59906133 0 0 0 221.36604444-221.36604444v-151.46097778z" fill="#474747" p-id="1649"></path><path d="M925.138944 682.33534578H785.79484445a34.95253333 34.95253333 0 0 1-34.95253334-34.95253333v-116.50844445a35.18555022 35.18555022 0 0 1 34.95253334-34.95253333h135.38281244a93.20675555 93.20675555 0 0 1 97.63407644 93.20675555 93.20675555 93.20675555 0 0 1-93.20675555 93.20675556z m-104.39156622-69.90506667h103.22648177a23.30168889 23.30168889 0 0 0 17.47626667-6.52447289 23.30168889 23.30168889 0 0 0 0-34.48649955 24.46677333 24.46677333 0 0 0-17.94230044-6.52447289h-102.760448z" fill="#474747" p-id="1650"></path><path d="M389.66613333 775.07606755h-97.63407644A147.03365689 147.03365689 0 0 1 144.9984 628.50844445v-4.66033778a34.95253333 34.95253333 0 0 1 69.90506667 0v4.66033778a77.12859022 77.12859022 0 0 0 77.12859022 76.89557333h97.63407644a34.95253333 34.95253333 0 0 1 0 69.90506667z" fill="#12DBDB" p-id="1651"></path></svg>