<?xml version="1.0" standalone="no"?><!DOCTYPE svg PUBLIC "-//W3C//DTD SVG 1.1//EN" "http://www.w3.org/Graphics/SVG/1.1/DTD/svg11.dtd"><svg t="1617091894304" class="icon" viewBox="0 0 1024 1024" version="1.1" xmlns="http://www.w3.org/2000/svg" p-id="1517" xmlns:xlink="http://www.w3.org/1999/xlink" width="160" height="160"><defs><style type="text/css"></style></defs><path d="M768 186.181818H256V0h512v186.181818zM302.545455 139.636364h418.90909V46.545455H302.545455v93.090909z m558.545454 768H162.909091V395.636364h698.181818v512zM209.454545 861.090909h605.09091V442.181818H209.454545v418.909091z m651.636364 162.909091H162.909091V418.909091c0-102.260364 55.179636-173.684364 139.636364-184.692364V139.636364h418.90909v94.580363c84.456727 11.008 139.636364 82.432 139.636364 184.692364v605.090909zM209.454545 977.454545h605.09091V418.909091c0-64.418909-30.487273-139.636364-116.363637-139.636364h-23.272727V186.181818H349.090909v93.090909H325.818182c-85.876364 0-116.363636 75.217455-116.363637 139.636364v558.545454z m302.545455-200.145454a43.077818 43.077818 0 0 1-30.580364-12.637091l-108.008727-107.985455a83.153455 83.153455 0 0 1 117.643636-117.527272l20.945455 20.945454 20.945455-20.945454a83.2 83.2 0 0 1 117.550545 0 83.2 83.2 0 0 1 0 117.550545l-108.008727 107.985455A43.077818 43.077818 0 0 1 512 777.309091z m-79.802182-215.947636A36.538182 36.538182 0 0 0 406.341818 623.709091L512 729.460364l105.658182-105.658182a36.584727 36.584727 0 1 0-51.735273-51.735273L512 626.036364l-53.922909-53.922909a36.538182 36.538182 0 0 0-25.879273-10.728728z" p-id="1518"></path></svg>