<?xml version="1.0" standalone="no"?><!DOCTYPE svg PUBLIC "-//W3C//DTD SVG 1.1//EN" "http://www.w3.org/Graphics/SVG/1.1/DTD/svg11.dtd"><svg t="1617412402195" class="icon" viewBox="0 0 1024 1024" version="1.1" xmlns="http://www.w3.org/2000/svg" p-id="2149" width="160" height="160" xmlns:xlink="http://www.w3.org/1999/xlink"><defs><style type="text/css"></style></defs><path d="M36.0192 296.85248l7.71072-14.93504C103.4496 166.21568 230.30784 85.39136 329.12384 48.32768L354.23232 38.912l-12.44672 23.7568C302.4384 137.78944 277.09952 211.59424 264.31488 288.29696l-1.42336 8.55552H36.0192z m188.46208-46.08c8.38656-40.20736 19.9424-79.2576 35.08224-118.48192C202.36288 165.4272 153.4464 206.52544 118.57408 250.77248h105.9072zM292.82304 294.50752l2.56512-12.32896c17.9712-86.272 45.824-167.5008 82.78528-241.42848l1.98144-3.95776 4.23936-1.26976c30.28992-9.088 63.60064-17.49504 101.92896-17.49504h10.24v276.48H292.82304z m157.66016-46.08V66.9952c-11.64288 1.82272-24.00256 4.5568-37.92896 8.36608-25.74848 53.92896-46.60224 112.06656-62.08512 173.06112h100.01408zM761.02144 296.8576l-1.47968-8.48384c-13.25568-76.18048-40.04864-154.22464-77.4912-225.69984l-12.44672-23.7568 25.10848 9.41568c98.816 37.05344 225.67424 117.87264 285.39392 233.58976l7.71072 14.93504h-226.79552z m144.24576-46.08c-34.98496-44.39552-84.10112-85.61152-141.53728-118.79936 14.96064 39.17312 26.83392 78.99648 35.42016 118.79936h106.11712zM527.27808 296.8576v-276.48h10.24c38.31296 0 71.63392 8.41216 101.92896 17.49504l4.23936 1.26976 1.98144 3.95776c38.41536 76.83584 65.88416 160.4608 79.44192 241.83296l1.98656 11.92448h-199.81824z m144.1792-46.08512c-13.19424-58.368-33.8688-117.85216-60.17024-173.06624-13.93152-3.8144-26.2912-6.54336-37.93408-8.36096v181.4272h98.10432zM329.12896 978.01216c-98.81088-37.05344-225.67424-117.87264-285.39904-233.58464l-7.71072-14.93504h226.81088l1.47456 8.48384c13.24032 76.16 40.0384 154.19904 77.48608 225.69472l12.44672 23.7568-25.10848-9.41568z m-210.55488-202.43968c34.99008 44.39552 84.10624 85.6064 141.5424 118.79424-14.96576-39.18848-26.83904-79.00672-35.42016-118.79424H118.57408zM486.3232 1005.97248c-31.40096 0-62.80192-5.59104-98.81088-17.59744l-4.02432-1.34144-1.89952-3.79392c-36.96128-73.92256-64.81408-155.15136-82.78528-241.41824l-2.56512-12.32896h200.32512v276.48h-10.24z m-70.14912-56.89856c12.0576 3.52768 23.3984 6.144 34.30912 7.91552v-181.42208H353.87392c15.52384 61.17376 36.4544 119.46496 62.30016 173.50656zM682.05056 963.67104c39.3472-75.10528 64.68608-148.91008 77.48096-225.62304l1.42336-8.55552h227.11808l-8.02816 15.05792c-51.21024 96.0256-163.21024 187.66336-285.33248 233.46176l-25.10848 9.41568 12.44672-23.7568z m117.30944-188.09856a755.11808 755.11808 0 0 1-34.9184 118.05184c54.85568-32.41472 104.08448-74.0096 139.66336-118.05184h-104.74496zM527.27808 1005.97248v-276.48h203.74528l-2.57024 12.32896c-17.98144 86.27712-45.82912 167.5008-82.78528 241.41824l-1.98144 3.95264-4.23936 1.27488c-30.30528 9.088-63.63136 17.50016-101.92896 17.50016h-10.24z m46.08-48.97792c11.65824-1.82272 24.02304-4.5568 37.9392-8.36608 25.73312-53.9136 46.592-112.05632 62.08512-173.06112h-100.02432v181.4272zM279.31648 637.78816c-9.33888 0-18.59072-5.22752-28.2624-15.9488L97.77152 445.27104v169.9328c0 6.784-2.93376 22.58432-30.01856 22.58432-26.55744 0-29.42976-15.80032-29.42976-22.58432V376.48896c0-6.6816 2.87744-22.22592 29.42976-22.22592 10.03008 0 19.75808 5.26336 28.91776 15.66208l153.22624 176.17408V376.48896c0-6.6816 2.87744-22.22592 29.41952-22.22592 27.10528 0 30.03904 15.54432 30.03904 22.22592v238.71488c0.00512 6.784-2.93376 22.58432-30.03904 22.58432zM379.6736 631.7824c-29.81888 0-34.26816-14.14656-34.26816-22.53824V381.7728c0-8.42752 4.45952-22.58432 34.26816-22.58432h200.87808c28.76928 0 25.39008 19.6608 25.39008 27.17696 0 7.3728 3.3792 26.81856-25.39008 26.81856H414.12608c-4.21888 0-9.25696 0.4864-9.25696 2.816v51.44064h158.36672c28.30848 0 34.24256 17.80736 34.24256 26.81344 0 9.0112-5.93408 26.81344-34.24256 26.81344H404.86912V574.976c0 0.8704 0 3.15392 9.25696 3.15392h166.43584c28.76416 0 25.39008 19.44576 25.39008 26.81344 0 7.36256 3.37408 26.79808-25.39008 26.79808H379.6736v0.04096zM899.27168 630.72256c-10.30656 0-23.42912-2.76992-27.42272-15.90784l-50.24256-161.10592-50.9696 161.08544c-3.99872 13.17888-17.13152 15.92832-27.43808 15.92832-10.67008 0-24.23808-2.76992-28.23168-15.90784l-67.47648-225.3312c-3.32288-11.35616-3.80928-13.83424-3.87072-14.37184 0-11.99104 16.68096-13.77792 26.60352-13.77792 19.12832 0 30.82752 5.00224 32.896 14.07488l40.33024 159.37024 49.95072-157.8496c3.98336-12.88704 17.55648-15.5904 28.2368-15.5904 10.67008 0 24.21248 2.70336 28.2112 15.58016l40.70912 130.51392 14.82752-0.47104 30.81216-131.54304c2.06848-9.09312 13.76256-14.08 32.91136-14.08 9.92768 0 26.57792 1.792 26.57792 13.75744-0.14848 1.09568-2.7392 10.4448-3.86048 14.42816l-64.32256 225.31072c-3.99872 13.11232-17.5616 15.88736-28.23168 15.88736z" p-id="2150"></path></svg>