<?xml version="1.0" standalone="no"?><!DOCTYPE svg PUBLIC "-//W3C//DTD SVG 1.1//EN" "http://www.w3.org/Graphics/SVG/1.1/DTD/svg11.dtd"><svg t="1618635626874" class="icon" viewBox="0 0 1024 1024" version="1.1" xmlns="http://www.w3.org/2000/svg" p-id="1954" xmlns:xlink="http://www.w3.org/1999/xlink" width="30" height="30"><defs><style type="text/css"></style></defs><path d="M223.037772 391.609049c-45.848211 0-48.158836 40.117696-48.158836 48.15986L174.878936 584.246441c0 45.801139 40.116673 48.16293 48.158836 48.16293l144.481625 0c5.973038 0 11.704576 2.213411 16.084327 6.211469L584.240301 819.125913 584.240301 204.889437 383.65489 385.393487c-4.431939 3.998057-10.162454 6.215562-16.135492 6.215562L223.037772 391.609049zM608.320743 897.291157c-5.828752 0-11.56029-2.12029-16.084327-6.215562L358.320898 680.56923 223.037772 680.56923c-38.71986 0-96.318696-25.668613-96.318696-96.322789L126.719076 439.768909c0-38.720883 25.668613-96.322789 96.318696-96.322789l135.234007 0 233.913471-210.553437c7.082302-6.405897 17.243733-7.948019 25.911136-4.095271 8.764618 3.900843 14.304797 12.521175 14.304797 22.011316l0 722.403011c0 9.486048-5.54018 18.153452-14.257725 22.0062C615.016235 896.615775 611.642394 897.291157 608.320743 897.291157z" p-id="1955"></path><path d="M728.71988 367.528608c-6.114255 0-12.328793-2.361791-17.049305-7.03523-9.389858-9.388834-9.389858-24.657586 0-34.046421l96.322789-96.322789c9.388834-9.389858 24.657586-9.389858 34.046421 0 9.393951 9.392928 9.393951 24.661679 0 34.050514l-96.318696 96.318696C741.048673 365.166817 734.933395 367.528608 728.71988 367.528608z" p-id="1956"></path><path d="M873.201505 536.087605 728.71988 536.087605c-13.242606 0-24.079418-10.786671-24.079418-24.080441 0-13.292748 10.837836-24.080441 24.079418-24.080441l144.481625 0c13.33982 0 24.079418 10.786671 24.079418 24.080441C897.280924 525.300934 886.541325 536.087605 873.201505 536.087605z" p-id="1957"></path><path d="M825.041646 800.968367c-6.117324 0-12.32777-2.358721-17.048281-7.031137l-96.322789-96.318696c-9.389858-9.393951-9.389858-24.657586 0-34.051537 9.392928-9.388834 24.657586-9.388834 34.050514 0l96.318696 96.318696c9.393951 9.393951 9.393951 24.661679 0 34.051537C837.370439 798.609647 831.253114 800.968367 825.041646 800.968367z" p-id="1958"></path></svg>