<?xml version="1.0" standalone="no"?><!DOCTYPE svg PUBLIC "-//W3C//DTD SVG 1.1//EN" "http://www.w3.org/Graphics/SVG/1.1/DTD/svg11.dtd"><svg t="1617343411009" class="icon" viewBox="0 0 1560 1024" version="1.1" xmlns="http://www.w3.org/2000/svg" p-id="2004" xmlns:xlink="http://www.w3.org/1999/xlink" width="243.75" height="160"><defs><style type="text/css"></style></defs><path d="M141.409524 0h1275.123809C1496.990476 0 1560.380952 63.390476 1560.380952 138.971429v746.057142c0 78.019048-63.390476 138.971429-141.409523 138.971429H141.409524C63.390476 1024 0 960.609524 0 885.028571V138.971429C0 63.390476 63.390476 0 141.409524 0z" fill="#0093AE" p-id="2005"></path><path d="M0 885.028571C0 960.609524 63.390476 1024 141.409524 1024h1277.561905c78.019048 0 141.409524-60.952381 141.409523-138.971429V572.952381H0v312.07619z" fill="#1DB038" p-id="2006"></path><path d="M0 307.2h1560.380952v409.6H0z" fill="#CE1126" p-id="2007"></path><path d="M0 341.333333h1560.380952v341.333334H0zM707.047619 226.742857l4.876191 19.504762h19.504761l-14.628571 9.752381 4.87619 19.504762-14.628571-12.190476-17.066667 12.190476 7.314286-19.504762-14.628571-9.752381h17.066666zM707.047619 136.533333l4.876191 19.504762h19.504761l-14.628571 9.752381 4.87619 19.504762-14.628571-12.190476-17.066667 12.190476 7.314286-19.504762-14.628571-9.752381h17.066666zM707.047619 46.32381l4.876191 19.504761h19.504761l-14.628571 9.752381 4.87619 17.066667-14.628571-9.752381-17.066667 9.752381 7.314286-17.066667-14.628571-9.752381h17.066666zM512 226.742857l4.87619 19.504762h19.504762l-14.628571 9.752381 4.87619 19.504762-14.628571-12.190476-17.066667 12.190476 7.314286-19.504762-14.628571-9.752381h17.066666zM512 136.533333l4.87619 19.504762h19.504762l-14.628571 9.752381 4.87619 19.504762-14.628571-12.190476-17.066667 12.190476 7.314286-19.504762-14.628571-9.752381h17.066666zM512 46.32381l4.87619 19.504761h19.504762l-14.628571 9.752381 4.87619 17.066667-14.628571-9.752381-17.066667 9.752381 7.314286-17.066667-14.628571-9.752381h17.066666zM414.47619 226.742857l4.876191 19.504762h19.504762l-14.628572 9.752381 4.876191 19.504762-14.628572-12.190476-17.066666 12.190476 7.314286-19.504762-14.628572-9.752381h17.066667zM414.47619 136.533333l4.876191 19.504762h19.504762l-14.628572 9.752381 4.876191 19.504762-14.628572-12.190476-17.066666 12.190476 7.314286-19.504762-14.628572-9.752381h17.066667zM316.952381 226.742857l4.87619 19.504762h19.504762l-14.628571 9.752381 4.87619 19.504762-14.628571-12.190476-17.066667 12.190476 7.314286-19.504762-14.628571-9.752381h17.066666zM609.52381 226.742857l4.87619 19.504762h19.504762l-14.628572 9.752381 4.876191 19.504762-14.628571-12.190476-17.066667 12.190476 7.314286-19.504762-14.628572-9.752381h17.066667zM609.52381 136.533333l4.87619 19.504762h19.504762l-14.628572 9.752381 4.876191 19.504762-14.628571-12.190476-17.066667 12.190476 7.314286-19.504762-14.628572-9.752381h17.066667zM609.52381 46.32381l4.87619 19.504761h19.504762l-14.628572 9.752381 4.876191 17.066667-14.628571-9.752381-17.066667 9.752381 7.314286-17.066667-14.628572-9.752381h17.066667zM131.657143 160.914286c0-56.07619 41.447619-102.4 95.085714-112.152381h-19.504762C146.285714 48.761905 95.085714 99.961905 95.085714 160.914286s51.2 112.152381 112.152381 112.152381c7.314286 0 12.190476 0 19.504762-2.438096-53.638095-7.314286-95.085714-53.638095-95.085714-109.714285z" fill="#FFFFFF" p-id="2008"></path></svg>