<?xml version="1.0" standalone="no"?><!DOCTYPE svg PUBLIC "-//W3C//DTD SVG 1.1//EN" "http://www.w3.org/Graphics/SVG/1.1/DTD/svg11.dtd"><svg t="1611382861307" class="icon" viewBox="0 0 1024 1024" version="1.1" xmlns="http://www.w3.org/2000/svg" p-id="1956" xmlns:xlink="http://www.w3.org/1999/xlink" width="200" height="200"><defs><style type="text/css"></style></defs><path d="M581.803 831.215a11.196 11.196 0 0 0 3.038 8.021 9.899 9.899 0 0 0 7.236 2.867 8.124 8.124 0 0 0 4.95-1.501 9.011 9.011 0 0 0 3.037-4.78l12.493 1.947a19.012 19.012 0 0 1-7.612 9.66 23.586 23.586 0 0 1-13.005 3.31c-8.226 0-14.336-2.457-18.295-7.44a23.654 23.654 0 0 1-4.71-15.088c0-7.27 2.082-12.936 6.178-17.032A20.992 20.992 0 0 1 590.677 805c7.066 0 12.63 2.15 16.726 6.45 4.062 4.302 6.007 10.89 5.836 19.764h-31.436z m-128.785 18.568H440.49v-60.45h12.527v22.221a19.115 19.115 0 0 1 14.506-6.553c2.902 0 5.496 0.477 7.817 1.467a12.63 12.63 0 0 1 5.256 3.823 13.141 13.141 0 0 1 2.39 5.086c0.443 1.877 0.648 4.779 0.648 8.704v25.702h-12.527v-23.142a31.642 31.642 0 0 0-0.717-8.738 5.87 5.87 0 0 0-2.525-2.936 8.43 8.43 0 0 0-4.54-1.092 10.786 10.786 0 0 0-5.564 1.4 8.294 8.294 0 0 0-3.618 4.198 23.86 23.86 0 0 0-1.126 8.363v21.947z m55.876 0h-12.527V805.99h12.527v43.793z m37.205 0h-11.298l-19.115-43.793h13.176l8.943 22.358 2.56 7.44a160.939 160.939 0 0 1 2.662-7.44l9.011-22.358h12.903l-18.842 43.793z m54.682-25.668c-0.103-3.345-1.024-5.905-2.8-7.646a9.011 9.011 0 0 0-6.519-2.594 9.011 9.011 0 0 0-6.792 2.765 10.103 10.103 0 0 0-2.628 7.475h18.739z m-91.887-24.064h-12.527v-10.718h12.527v10.718z m329.318-35.806h-15.974v-80.964h14.882v8.602a22.323 22.323 0 0 1 18.773-9.933 23.21 23.21 0 0 1 17.818 8.021c4.881 5.325 7.339 12.766 7.339 22.29 0 9.796-2.458 17.407-7.373 22.834a23.347 23.347 0 0 1-26.931 6.213 29.525 29.525 0 0 1-8.534-6.622v29.56z m-374.101-52.463c0-5.154 1.297-10.137 3.891-14.984a26.556 26.556 0 0 1 11.093-11.025 33.553 33.553 0 0 1 16.043-3.823c9.114 0 16.589 2.867 22.426 8.636 5.802 5.768 8.738 13.039 8.738 21.845 0 8.875-2.936 16.247-8.84 22.084a30.208 30.208 0 0 1-22.221 8.738c-5.496 0-10.787-1.228-15.804-3.652a25.498 25.498 0 0 1-11.435-10.684 34.918 34.918 0 0 1-3.891-17.135z m283.921 0c0-5.154 1.297-10.137 3.925-14.984a26.385 26.385 0 0 1 11.094-11.025 33.417 33.417 0 0 1 16.008-3.823c9.148 0 16.589 2.867 22.426 8.636a29.389 29.389 0 0 1 8.738 21.845c0 8.875-2.936 16.247-8.806 22.084a30.31 30.31 0 0 1-22.221 8.738c-5.53 0-10.786-1.228-15.804-3.652a25.156 25.156 0 0 1-11.435-10.684 34.577 34.577 0 0 1-3.925-17.135z m-83.012 30.14h-14.814v-8.601a23.757 23.757 0 0 1-18.842 9.932 23.279 23.279 0 0 1-17.783-8.158c-4.915-5.427-7.407-13.004-7.407-22.698 0-9.967 2.423-17.51 7.202-22.699a23.893 23.893 0 0 1 18.227-7.748c6.724 0 12.561 2.73 17.476 8.192v-29.184h15.94v80.964z m12.049-30.14c0-5.154 1.297-10.137 3.891-14.984a26.556 26.556 0 0 1 11.093-11.025 33.45 33.45 0 0 1 16.043-3.823c9.114 0 16.589 2.867 22.391 8.636a29.389 29.389 0 0 1 8.739 21.845c0 8.875-2.936 16.247-8.807 22.084a30.208 30.208 0 0 1-22.22 8.738c-5.53 0-10.787-1.228-15.804-3.652a25.327 25.327 0 0 1-11.435-10.684 34.918 34.918 0 0 1-3.891-17.135z m-141.995 0A31.403 31.403 0 0 1 539 696.798a26.556 26.556 0 0 1 11.094-11.025 33.45 33.45 0 0 1 16.042-3.823c9.114 0 16.59 2.867 22.392 8.636a29.389 29.389 0 0 1 8.738 21.845c0 8.875-2.935 16.247-8.806 22.084a30.242 30.242 0 0 1-22.221 8.738c-5.53 0-10.786-1.228-15.804-3.652A25.327 25.327 0 0 1 539 728.917a34.918 34.918 0 0 1-3.925-17.135z m-122.368 30.14h-15.94v-80.964h15.94v29.764a23.79 23.79 0 0 1 18.432-8.772c3.652 0 6.963 0.648 9.933 1.98a16.452 16.452 0 0 1 9.728 11.946c0.546 2.492 0.82 6.383 0.82 11.64v34.406h-15.941V710.93c0-6.144-0.307-10.035-0.922-11.708a7.51 7.51 0 0 0-3.208-3.925 10.308 10.308 0 0 0-5.735-1.468 13.38 13.38 0 0 0-7.1 1.878 10.923 10.923 0 0 0-4.573 5.666 33.212 33.212 0 0 0-1.434 11.161v29.39zM260.301 724.48l11.537 1.4c0.205 1.33 0.648 2.252 1.331 2.764 0.956 0.717 2.492 1.093 4.54 1.093a11.913 11.913 0 0 0 5.939-1.195 5.12 5.12 0 0 0 1.98-2.56 14.268 14.268 0 0 0 0.478-4.642v-5.564a13.62 13.62 0 0 1-11.435 6.178 13.995 13.995 0 0 1-12.152-6.485 22.187 22.187 0 0 1-3.55-12.8c0-6.383 1.57-11.298 4.643-14.643a14.882 14.882 0 0 1 11.469-5.086 13.995 13.995 0 0 1 11.673 6.212v-5.359h9.455v34.236a33.758 33.758 0 0 1-1.126 10.103 12.39 12.39 0 0 1-3.106 5.257 14.063 14.063 0 0 1-5.394 2.97 28.092 28.092 0 0 1-8.499 1.092c-6.45 0-11.025-1.127-13.755-3.345a10.377 10.377 0 0 1-4.062-8.397l0.034-1.229z m362.154-13.141c0 6.246 0.888 10.786 2.663 13.585a12.186 12.186 0 0 0 10.786 6.075 11.947 11.947 0 0 0 9.387-4.573c2.56-3.038 3.857-7.578 3.857-13.62 0-6.724-1.263-11.57-3.755-14.54a11.947 11.947 0 0 0-9.591-4.438 12.015 12.015 0 0 0-9.49 4.403c-2.56 2.902-3.857 7.27-3.857 13.108z m215.587 0.273c0 6.587 1.33 11.469 4.027 14.609a12.39 12.39 0 0 0 9.797 4.71 11.605 11.605 0 0 0 9.25-4.335c2.457-2.867 3.686-7.611 3.686-14.2 0-6.177-1.263-10.717-3.789-13.72a11.878 11.878 0 0 0-9.42-4.472 12.322 12.322 0 0 0-9.694 4.403c-2.594 2.935-3.857 7.27-3.857 13.005z m-144.657 0.99c0 5.802 1.433 10.274 4.266 13.38 2.833 3.072 6.349 4.608 10.48 4.608a13.653 13.653 0 0 0 10.478-4.608c2.833-3.106 4.233-7.612 4.233-13.483 0-5.734-1.4-10.172-4.233-13.278a13.653 13.653 0 0 0-10.479-4.608 13.722 13.722 0 0 0-10.479 4.608c-2.833 3.106-4.266 7.578-4.266 13.38z m-212.924 0c0 5.802 1.4 10.274 4.232 13.38 2.833 3.072 6.35 4.608 10.513 4.608a13.55 13.55 0 0 0 10.445-4.608c2.833-3.106 4.233-7.612 4.233-13.483 0-5.734-1.4-10.172-4.233-13.278a13.55 13.55 0 0 0-10.445-4.608 13.756 13.756 0 0 0-10.513 4.608c-2.833 3.106-4.232 7.578-4.232 13.38z m283.92 0c0 5.802 1.4 10.274 4.268 13.38a13.653 13.653 0 0 0 10.478 4.608 13.653 13.653 0 0 0 10.48-4.608c2.798-3.106 4.232-7.612 4.232-13.483 0-5.734-1.434-10.172-4.233-13.278a13.653 13.653 0 0 0-10.479-4.608 13.653 13.653 0 0 0-10.478 4.608c-2.868 3.106-4.267 7.578-4.267 13.38z m-212.957 0c0 5.802 1.434 10.274 4.267 13.38a13.653 13.653 0 0 0 10.479 4.608 13.653 13.653 0 0 0 10.479-4.608c2.833-3.106 4.232-7.612 4.232-13.483 0-5.734-1.4-10.172-4.232-13.278a13.653 13.653 0 0 0-10.48-4.608 13.653 13.653 0 0 0-10.478 4.608c-2.833 3.106-4.267 7.578-4.267 13.38z m-237.841-6.793a10.07 10.07 0 0 0 2.458 6.963 7.612 7.612 0 0 0 5.802 2.492 6.144 6.144 0 0 0 3.994-1.263 7.953 7.953 0 0 0 2.457-4.198l10.07 1.706a16.589 16.589 0 0 1-6.144 8.431 18.125 18.125 0 0 1-10.48 2.867c-6.621 0-11.536-2.15-14.71-6.485a21.777 21.777 0 0 1-3.79-13.141c0-6.349 1.673-11.298 4.95-14.882a16.486 16.486 0 0 1 12.56-5.36c5.667 0 10.139 1.878 13.415 5.633 3.311 3.754 4.881 9.489 4.71 17.237h-25.292z m-88.713 16.145h-10a31.3 31.3 0 0 1-0.956-2.97l-0.376-1.194a16.213 16.213 0 0 1-11.81 5.017 13.039 13.039 0 0 1-9.284-3.174 10.615 10.615 0 0 1-3.414-8.09c0-2.15 0.512-4.096 1.536-5.768a10.65 10.65 0 0 1 4.335-3.891c1.878-0.888 4.54-1.673 8.056-2.355 4.71-0.888 7.987-1.707 9.796-2.458v-1.024c0-1.946-0.478-3.311-1.434-4.13-0.955-0.82-2.764-1.263-5.427-1.263a7.339 7.339 0 0 0-4.198 1.058 7.27 7.27 0 0 0-2.458 3.72l-9.147-1.638a14.336 14.336 0 0 1 5.29-8.192c2.526-1.775 6.28-2.662 11.23-2.662 4.506 0 7.85 0.546 10.07 1.604 2.184 1.058 3.754 2.423 4.642 4.062a21.026 21.026 0 0 1 1.33 9.045l-0.102 11.776c0 3.345 0.171 5.837 0.478 7.407 0.342 1.604 0.956 3.311 1.843 5.12z m-43.52 0h-10.103v-52.668h10.103v52.668z m175.446 0h-10.104v-38.16h9.353v5.426a16.555 16.555 0 0 1 4.335-5.051 7.953 7.953 0 0 1 4.369-1.23c2.32 0 4.505 0.65 6.656 1.912l-3.14 8.807a8.875 8.875 0 0 0-4.745-1.673 5.598 5.598 0 0 0-3.584 1.195c-0.99 0.75-1.74 2.184-2.321 4.198-0.546 2.048-0.82 6.315-0.82 12.8v11.776z m-114.518 0h-10.103v-38.16h9.387v5.426a16.11 16.11 0 0 1 4.335-5.051 7.85 7.85 0 0 1 4.369-1.23c2.287 0 4.505 0.65 6.621 1.912l-3.106 8.807a8.977 8.977 0 0 0-4.744-1.673 5.53 5.53 0 0 0-3.584 1.195c-0.99 0.75-1.775 2.184-2.321 4.198-0.58 2.048-0.854 6.315-0.854 12.8v11.776z m-29.525-18.33a62.908 62.908 0 0 1-6.144 1.57 17.886 17.886 0 0 0-5.495 1.741c-1.332 0.956-1.98 2.117-1.98 3.55 0 1.434 0.512 2.663 1.57 3.687s2.39 1.536 4.028 1.536a8.67 8.67 0 0 0 5.222-1.81 6.144 6.144 0 0 0 2.39-3.31 19.627 19.627 0 0 0 0.41-4.95v-2.013z m56.593-1.535c0 4.061 0.785 7.031 2.355 8.908a7.236 7.236 0 0 0 5.803 2.8 8.055 8.055 0 0 0 6.246-2.868c1.707-1.946 2.526-4.813 2.526-8.567 0-3.96-0.785-6.895-2.423-8.807a7.714 7.714 0 0 0-6.178-2.901 7.441 7.441 0 0 0-5.974 2.833c-1.57 1.877-2.355 4.744-2.355 8.602z m59.529-2.458a9.796 9.796 0 0 0-2.287-6.69 6.997 6.997 0 0 0-5.223-2.287 6.997 6.997 0 0 0-5.461 2.423 9.318 9.318 0 0 0-2.116 6.554h15.087zM195.31 525.824l-34.543 6.246c-1.16-6.929-3.823-12.117-7.919-15.599a24.03 24.03 0 0 0-16.043-5.256 26.317 26.317 0 0 0-20.89 9.045c-5.187 6.042-7.782 16.111-7.782 30.242 0 15.736 2.629 26.83 7.92 33.315 5.29 6.485 12.356 9.728 21.264 9.728a23.689 23.689 0 0 0 16.35-5.7c4.233-3.755 7.202-10.275 8.977-19.49l34.407 5.836c-3.584 15.804-10.445 27.75-20.583 35.806s-23.722 12.083-40.789 12.083c-19.354 0-34.782-6.11-46.319-18.33-11.503-12.22-17.271-29.115-17.271-50.756 0-21.845 5.768-38.878 17.34-51.063 11.57-12.186 27.17-18.262 46.899-18.262 16.11 0 28.945 3.482 38.468 10.411s16.35 17.51 20.514 31.744z m373.248 93.286h-32.563V599.28a50.859 50.859 0 0 1-19.013 16.691c-7.85 4.096-16.145 6.11-24.883 6.11a48.81 48.81 0 0 1-23.927-5.837 34.85 34.85 0 0 1-15.36-16.486c-3.14-7.066-4.71-16.828-4.71-29.287v-83.797h35.02v60.86c0 18.602 0.649 30.003 1.946 34.201a18.773 18.773 0 0 0 7.031 10.001c3.414 2.458 7.749 3.687 12.97 3.687a27.682 27.682 0 0 0 25.84-17.17c1.74-4.846 2.594-16.759 2.594-35.737v-55.842h35.055V619.11z m-283.853-68.096c0-11.64 2.867-22.903 8.636-33.792a59.05 59.05 0 0 1 24.371-24.951 72.363 72.363 0 0 1 35.226-8.602c20.036 0 36.454 6.52 49.254 19.525 12.8 13.004 19.217 29.457 19.217 49.322 0 20.037-6.485 36.625-19.388 49.8-12.936 13.176-29.218 19.764-48.844 19.764-12.118 0-23.723-2.73-34.714-8.226a56.354 56.354 0 0 1-25.122-24.132c-5.769-10.582-8.636-23.484-8.636-38.708z m441.617 68.096H693.76v-19.456a52.77 52.77 0 0 1-19.149 16.896 49.186 49.186 0 0 1-22.255 5.53c-15.223 0-28.228-6.11-39.082-18.398-10.855-12.254-16.282-29.355-16.282-51.302 0-22.46 5.29-39.493 15.838-51.2 10.547-11.674 23.893-17.51 40.038-17.51 14.78 0 27.58 6.143 38.4 18.465v-65.843h35.055V619.11z m-469.401 0h-35.055V436.292h35.055V619.11z m375.842-69.085c0 14.13 1.98 24.337 5.87 30.651 5.667 9.148 13.552 13.722 23.69 13.722 8.089 0 14.95-3.413 20.582-10.274 5.666-6.861 8.499-17.101 8.499-30.754 0-15.19-2.765-26.147-8.26-32.837a26.01 26.01 0 0 0-21.06-10.069 26.283 26.283 0 0 0-20.89 9.933c-5.598 6.622-8.431 16.486-8.431 29.628z m-312.115 2.867c0 13.141 3.106 23.176 9.352 30.174a29.764 29.764 0 0 0 23.074 10.479 29.628 29.628 0 0 0 23.006-10.48c6.178-6.997 9.284-17.134 9.284-30.446 0-12.971-3.106-22.938-9.284-29.901a29.491 29.491 0 0 0-23.006-10.48 29.662 29.662 0 0 0-23.074 10.48c-6.246 6.963-9.352 17.032-9.352 30.174z m498.346 24.03h-7.338v-4.37a11.366 11.366 0 0 1-18.194 0.888 16.828 16.828 0 0 1-3.686-11.571c0-5.086 1.195-8.943 3.584-11.571a11.605 11.605 0 0 1 9.045-3.96c3.345 0 6.247 1.365 8.67 4.164V535.62h7.92v41.302z m16.145-29.935h5.393v6.314h-5.393v12.084c0 2.423 0.034 3.857 0.137 4.266 0.102 0.41 0.341 0.751 0.717 0.99 0.34 0.273 0.819 0.41 1.33 0.41a10.957 10.957 0 0 0 3.175-0.751l0.683 6.144a15.804 15.804 0 0 1-6.247 1.16 9.83 9.83 0 0 1-3.857-0.717 5.461 5.461 0 0 1-2.525-1.843 7.373 7.373 0 0 1-1.127-3.106 38.639 38.639 0 0 1-0.239-5.564v-13.073h-3.652v-6.314h3.652v-5.94l7.953-4.608v10.548z m-49.698 29.935h-7.816a20.89 20.89 0 0 1-0.751-2.321 6.793 6.793 0 0 0-0.308-0.922 14.131 14.131 0 0 1-4.334 2.935 11.947 11.947 0 0 1-4.916 0.99 10.206 10.206 0 0 1-7.304-2.491 8.363 8.363 0 0 1-2.663-6.35c0-1.706 0.41-3.208 1.23-4.539a7.919 7.919 0 0 1 3.378-3.038 28.706 28.706 0 0 1 6.315-1.843c3.686-0.683 6.246-1.331 7.68-1.946v-0.785c0-1.536-0.375-2.594-1.126-3.242-0.751-0.649-2.185-0.99-4.267-0.99a5.427 5.427 0 0 0-3.277 0.853 5.598 5.598 0 0 0-1.911 2.901l-7.202-1.297a11.093 11.093 0 0 1 4.164-6.417 15.258 15.258 0 0 1 8.806-2.082c3.516 0 6.144 0.41 7.885 1.229a7.953 7.953 0 0 1 3.652 3.208 16.043 16.043 0 0 1 1.058 7.066l-0.068 9.25c0 2.628 0.103 4.574 0.376 5.837a16.486 16.486 0 0 0 1.4 3.994z m133.769-12.664c0.068 2.355 0.682 4.164 1.911 5.461a5.973 5.973 0 0 0 4.574 1.98c1.229 0 2.287-0.341 3.14-1.024a6.588 6.588 0 0 0 1.912-3.277l7.885 1.332a12.97 12.97 0 0 1-4.813 6.621 14.165 14.165 0 0 1-8.226 2.253c-5.189 0-9.046-1.706-11.537-5.086a17.135 17.135 0 0 1-2.97-10.308c0-4.983 1.297-8.875 3.891-11.673a12.834 12.834 0 0 1 9.83-4.199c4.472 0 7.988 1.468 10.548 4.403 2.594 2.936 3.823 7.441 3.686 13.517h-19.831z m-49.8 12.664h-7.92v-29.935h7.305v4.096a11.674 11.674 0 0 1 9.318-4.745c1.912 0 3.584 0.376 4.984 1.16a9.284 9.284 0 0 1 3.481 3.585 13.653 13.653 0 0 1 4.233-3.584 10.581 10.581 0 0 1 4.88-1.16c2.22 0 4.063 0.443 5.599 1.33a8.192 8.192 0 0 1 3.413 3.926 17.135 17.135 0 0 1 0.82 6.212v19.115h-7.92V559.82c0-2.97-0.273-4.881-0.819-5.735a3.789 3.789 0 0 0-3.38-1.706 5.325 5.325 0 0 0-3.14 1.024 5.666 5.666 0 0 0-2.116 2.97 20.958 20.958 0 0 0-0.648 6.177v14.37h-7.92v-16.383a21.06 21.06 0 0 0-0.443-5.632 3.618 3.618 0 0 0-1.297-1.912 4.164 4.164 0 0 0-2.423-0.614 5.803 5.803 0 0 0-3.277 0.99 5.393 5.393 0 0 0-2.116 2.867 21.572 21.572 0 0 0-0.615 6.144v14.54z m-15.463 0h-7.92v-29.935h7.92v29.935z m-77.995-14.37a51.541 51.541 0 0 1-4.813 1.228 14.473 14.473 0 0 0-4.3 1.366c-1.059 0.75-1.57 1.672-1.57 2.799s0.409 2.082 1.228 2.867a4.437 4.437 0 0 0 3.175 1.229 6.997 6.997 0 0 0 4.096-1.4 5.052 5.052 0 0 0 1.877-2.628 15.872 15.872 0 0 0 0.307-3.857v-1.605z m21.914-1.23c0 3.21 0.443 5.496 1.33 6.93a5.905 5.905 0 0 0 5.36 3.106 5.905 5.905 0 0 0 4.642-2.321c1.263-1.57 1.911-3.857 1.911-6.963 0-3.414-0.614-5.905-1.877-7.407a5.803 5.803 0 0 0-4.744-2.287 5.905 5.905 0 0 0-4.71 2.253c-1.298 1.501-1.912 3.72-1.912 6.69z m133.324-1.91c-0.068-2.288-0.648-4.029-1.774-5.223a5.461 5.461 0 0 0-4.13-1.81 5.495 5.495 0 0 0-4.267 1.912 7.339 7.339 0 0 0-1.673 5.12h11.844z m-77.243-16.453h-7.92v-7.339h7.92v7.339zM652.56 424.96h-21.743v-12.97a35.055 35.055 0 0 1-12.8 11.263 32.563 32.563 0 0 1-14.882 3.72 33.655 33.655 0 0 1-26.112-12.287c-7.27-8.192-10.889-19.627-10.889-34.304 0-14.985 3.516-26.385 10.582-34.202a34.475 34.475 0 0 1 26.76-11.707c9.865 0 18.432 4.13 25.669 12.322v-43.998h23.415V424.96z m142.575-88.474h16.009v18.671h-16.009v35.636c0 7.236 0.137 11.434 0.444 12.629 0.307 1.195 1.024 2.184 2.082 2.97a6.622 6.622 0 0 0 3.96 1.16 30.071 30.071 0 0 0 9.42-2.253l2.014 18.193c-5.461 2.321-11.605 3.482-18.5 3.482a29.798 29.798 0 0 1-11.435-2.116 16.691 16.691 0 0 1-7.441-5.496 21.504 21.504 0 0 1-3.277-9.148 111.377 111.377 0 0 1-0.75-16.486v-38.57H760.9v-18.672h10.752v-17.578l23.484-13.688v31.266z m-42.598 88.474h-23.143a82.74 82.74 0 0 1-2.253-6.895 48.742 48.742 0 0 0-0.853-2.765 41.984 41.984 0 0 1-12.834 8.773 36.523 36.523 0 0 1-14.575 2.9c-9.114 0-16.282-2.457-21.538-7.406a24.678 24.678 0 0 1-7.885-18.773c0-4.984 1.195-9.455 3.584-13.347a23.279 23.279 0 0 1 10.07-9.01c4.3-2.083 10.512-3.892 18.602-5.462 10.957-2.048 18.534-3.96 22.767-5.734v-2.356c0-4.505-1.126-7.714-3.345-9.625-2.219-1.912-6.417-2.867-12.595-2.867a16.657 16.657 0 0 0-9.728 2.457 16.828 16.828 0 0 0-5.666 8.636l-21.265-3.857c2.389-8.534 6.519-14.882 12.356-18.978 5.802-4.13 14.472-6.178 25.975-6.178 10.445 0 18.227 1.228 23.347 3.72 5.12 2.458 8.704 5.598 10.787 9.42 2.082 3.79 3.14 10.787 3.14 20.959l-0.273 27.306c0 7.783 0.375 13.517 1.126 17.238 0.751 3.686 2.15 7.646 4.199 11.844z m151.756 0h-23.142a82.74 82.74 0 0 1-2.253-6.895 48.742 48.742 0 0 0-0.853-2.765 41.984 41.984 0 0 1-12.834 8.773 36.66 36.66 0 0 1-14.575 2.9c-9.114 0-16.282-2.457-21.538-7.406a24.678 24.678 0 0 1-7.885-18.773c0-4.984 1.195-9.455 3.584-13.347a23.381 23.381 0 0 1 10.035-9.01c4.3-2.083 10.513-3.892 18.637-5.462 10.957-2.048 18.534-3.96 22.767-5.734v-2.356c0-4.505-1.127-7.714-3.345-9.625-2.219-1.912-6.417-2.867-12.595-2.867a16.657 16.657 0 0 0-9.728 2.457 16.828 16.828 0 0 0-5.667 8.636l-21.265-3.857c2.39-8.534 6.486-14.882 12.322-18.978 5.837-4.13 14.507-6.178 26.01-6.178 10.445 0 18.227 1.228 23.347 3.72a23.21 23.21 0 0 1 10.786 9.42c2.083 3.79 3.107 10.787 3.107 20.959l-0.24 27.306c0 7.783 0.376 13.517 1.127 17.238 0.75 3.686 2.15 7.646 4.198 11.844zM317.85 361.71h11.161l9.49 28.127 9.25-28.126h10.854l-13.995 38.127-2.492 6.895a27.99 27.99 0 0 1-2.628 5.29 11.947 11.947 0 0 1-2.867 2.97 11.947 11.947 0 0 1-3.994 1.775 26.624 26.624 0 0 1-11.298 0l-0.921-8.192a24.337 24.337 0 0 0 4.437 0.478c2.423 0 4.232-0.717 5.393-2.15a14.882 14.882 0 0 0 2.697-5.462l-15.087-39.731z m-31.505 54.683h-10.48V361.71h9.763v5.837a14.336 14.336 0 0 1 5.154-4.847 15.155 15.155 0 0 1 18.91 3.516c3.208 3.618 4.813 8.635 4.813 15.086 0 6.622-1.605 11.742-4.847 15.429a15.155 15.155 0 0 1-17.716 4.198 20.514 20.514 0 0 1-5.597-4.471v19.934z m438.135-33.929c-3.004 1.024-7.748 2.219-14.268 3.584-6.485 1.4-10.752 2.765-12.731 4.096a9.728 9.728 0 0 0-4.608 8.26c0 3.277 1.228 6.11 3.686 8.5 2.423 2.389 5.564 3.583 9.318 3.583a20.31 20.31 0 0 0 12.084-4.164 14.78 14.78 0 0 0 5.597-7.748c0.615-2.014 0.922-5.837 0.922-11.435v-4.676z m151.757 0c-3.004 1.024-7.783 2.219-14.268 3.584-6.485 1.4-10.752 2.765-12.766 4.096a9.796 9.796 0 0 0-4.574 8.26c0 3.277 1.23 6.11 3.687 8.5 2.423 2.389 5.53 3.583 9.318 3.583a20.31 20.31 0 0 0 12.083-4.164 14.78 14.78 0 0 0 5.598-7.748c0.615-2.014 0.922-5.837 0.922-11.435v-4.676z m-286.174-3.652c0 9.455 1.297 16.281 3.891 20.48 3.789 6.144 9.08 9.182 15.838 9.182a17.271 17.271 0 0 0 13.756-6.861c3.789-4.608 5.666-11.435 5.666-20.548 0-10.172-1.843-17.477-5.496-21.948a17.306 17.306 0 0 0-14.097-6.724 17.579 17.579 0 0 0-13.926 6.621c-3.755 4.404-5.632 11.025-5.632 19.798zM376.32 361.71h7.168v8.363h-7.168v15.974c0 3.209 0.068 5.12 0.205 5.632a2.287 2.287 0 0 0 0.921 1.331c0.478 0.342 1.093 0.512 1.775 0.512 0.99 0 2.39-0.307 4.233-0.99l0.887 8.124a20.548 20.548 0 0 1-8.294 1.57 12.732 12.732 0 0 1-5.086-0.956 7.168 7.168 0 0 1-3.345-2.457 9.455 9.455 0 0 1-1.468-4.096 47.82 47.82 0 0 1-0.341-7.373v-17.271h-4.813v-8.363h4.813v-7.85l10.513-6.145v13.995z m58.675 19.251c0-3.481 0.854-6.86 2.56-10.103a17.954 17.954 0 0 1 7.305-7.476 21.709 21.709 0 0 1 10.547-2.56 19.763 19.763 0 0 1 20.48 20.583 20.48 20.48 0 0 1-5.803 14.916 19.66 19.66 0 0 1-14.609 5.905 22.972 22.972 0 0 1-10.376-2.457 16.998 16.998 0 0 1-7.544-7.237 24.064 24.064 0 0 1-2.56-11.57z m-33.792 20.378h-10.479v-54.682h10.48v20.105a15.428 15.428 0 0 1 12.117-5.94c2.423 0 4.573 0.444 6.519 1.332a10.923 10.923 0 0 1 6.417 8.055c0.341 1.707 0.546 4.335 0.546 7.885v23.245H416.29v-20.924a30.788 30.788 0 0 0-0.58-7.919 5.12 5.12 0 0 0-2.116-2.662 6.793 6.793 0 0 0-3.79-0.99 8.533 8.533 0 0 0-4.641 1.263 7.236 7.236 0 0 0-3.004 3.823 22.46 22.46 0 0 0-0.956 7.543v19.866z m93.287 0h-10.48v-39.63h9.729v5.838a15.94 15.94 0 0 1 19.422-5.462 10.479 10.479 0 0 1 4.334 3.175 11.332 11.332 0 0 1 2.048 4.403 33.28 33.28 0 0 1 0.58 7.031v24.645h-10.478v-20.241a31.3 31.3 0 0 0-0.683-8.295 5.803 5.803 0 0 0-2.184-2.935 6.28 6.28 0 0 0-3.619-1.024 8.124 8.124 0 0 0-4.88 1.502 7.202 7.202 0 0 0-2.97 3.925 33.69 33.69 0 0 0-0.82 9.114v17.954z m-208.248-20.48c0 4.437 0.888 7.748 2.628 9.864a8.124 8.124 0 0 0 6.452 3.175 7.51 7.51 0 0 0 6.075-2.902c1.639-1.98 2.458-5.154 2.458-9.625 0-4.165-0.853-7.237-2.526-9.25a7.714 7.714 0 0 0-6.178-3.004 8.158 8.158 0 0 0-6.383 2.935c-1.707 1.98-2.526 4.916-2.526 8.807z m159.505 0.648c0 3.96 0.922 6.963 2.8 9.046a8.875 8.875 0 0 0 6.894 3.14c2.73 0 5.018-1.058 6.895-3.14 1.843-2.083 2.765-5.12 2.765-9.114a13.107 13.107 0 0 0-2.765-8.943 8.943 8.943 0 0 0-6.895-3.14 8.875 8.875 0 0 0-6.895 3.14c-1.877 2.082-2.799 5.086-2.799 9.011zM417.86 232.482c0-8.158 2.902-16.077 8.738-23.757 5.803-7.646 14.063-13.516 24.713-17.544a100.66 100.66 0 0 1 35.738-6.042c20.309 0 36.966 4.574 49.97 13.722 12.971 9.148 19.49 20.719 19.49 34.68 0 14.096-6.587 25.77-19.694 35.054-13.107 9.25-29.594 13.892-49.528 13.892-12.288 0-24.03-1.911-35.225-5.768-11.162-3.891-19.66-9.523-25.464-16.998a42.77 42.77 0 0 1-8.738-27.239z m-133.7 47.89h-34.543l-42.496-93.117h34.543l25.156 61.03 23.177-61.03h34.27l22.391 61.03 25.668-61.03h35.021l-43.11 93.116h-34.168l-23.142-59.904-22.767 59.904z m435.268 0h-35.567V151.79h35.567v68.267l41.609-32.803h43.759l-45.91 34.031 49.187 59.085H769.74l-33.758-41.813-16.555 12.015v29.798z m-101.069 0h-35.566v-93.117h33.04V200.5c5.633-6.28 10.718-10.376 15.224-12.39 4.506-1.98 9.626-2.97 15.36-2.97 8.09 0 15.906 1.536 23.416 4.642l-11.026 21.504a40.823 40.823 0 0 0-16.69-4.062 25.77 25.77 0 0 0-12.63 2.868 19.115 19.115 0 0 0-8.158 10.308c-1.98 4.983-2.97 15.36-2.97 31.232v28.74z m-164.078-46.559c0 9.25 3.174 16.316 9.489 21.231 6.348 4.915 14.13 7.373 23.415 7.373 9.284 0 17.033-2.458 23.347-7.373 6.28-4.915 9.421-12.049 9.421-21.401 0-9.114-3.14-16.145-9.42-21.06a36.796 36.796 0 0 0-23.348-7.373c-9.284 0-17.067 2.457-23.415 7.372-6.315 4.916-9.49 11.981-9.49 21.231z" fill="#515151" p-id="1957"></path></svg>